
<svg version="1.1" xmlns="http://www.w3.org/2000/svg" width="1024" height="1024">

<path d="M0 0 C1.17530273 -0.00671722 2.35060547 -0.01343445 3.56152344 -0.02035522 C7.42899868 -0.03927873 11.29629976 -0.04325701 15.16381836 -0.04541016 C16.50602226 -0.04826105 17.84822548 -0.05145376 19.19042778 -0.05498123 C26.22446266 -0.07344687 33.25842215 -0.08165683 40.29248047 -0.08007812 C46.8061719 -0.07887995 53.31953026 -0.09992724 59.83313757 -0.13156545 C65.45901581 -0.15789879 71.08478649 -0.16843824 76.71072572 -0.16716731 C80.05582403 -0.16666233 83.400393 -0.17398274 86.74547005 -0.19352341 C109.19668806 -0.31236756 129.76926625 0.77265034 146.94897461 17.13427734 C157.37015105 28.41366832 163.33711718 42.03052057 163.13647461 57.38427734 C163.13222977 58.63247253 163.13222977 58.63247253 163.12789917 59.90588379 C163.11680497 62.53425165 163.09172136 65.16226444 163.06616211 67.79052734 C163.05611837 69.58479322 163.04699497 71.37906449 163.03881836 73.17333984 C163.01690104 77.54587013 162.98244701 81.91813877 162.94116211 86.29052734 C164.19602417 86.27942429 165.45088623 86.26832123 166.74377441 86.25688171 C178.62935472 86.15506876 190.51484535 86.08035338 202.40076447 86.03146648 C208.50995709 86.00548738 214.61879478 85.97030446 220.7277832 85.91333008 C226.63468361 85.85859166 232.54124484 85.82901917 238.44837952 85.81614113 C240.69040763 85.80697586 242.93241934 85.78908043 245.17430115 85.76187706 C263.87878964 85.54415301 280.64088876 87.14944206 295.17944336 100.31787109 C306.0775466 111.66749651 309.25135539 124.59476618 309.20185852 139.82672119 C309.20568407 141.07874038 309.20950961 142.33075956 309.21345109 143.62071872 C309.22370396 147.07979153 309.22155621 150.53876037 309.21727049 153.9978416 C309.21479828 157.73485469 309.22382367 161.47184307 309.23130798 165.20884705 C309.244044 172.52440705 309.24584998 179.83993033 309.24350772 187.15549955 C309.2417229 193.10439022 309.24347773 199.05326977 309.24773216 205.00215912 C309.24832735 205.84964643 309.24892254 206.69713373 309.24953577 207.57030247 C309.25074755 209.29214043 309.25196169 211.01397838 309.25317814 212.73581633 C309.2640498 228.87666558 309.26189317 245.01749393 309.2557933 261.15834436 C309.25062649 275.909602 309.261874 290.66079355 309.28089152 305.41203812 C309.30028626 320.57260195 309.30852292 335.73313454 309.30476826 350.89371085 C309.30285844 359.39954283 309.30532224 367.9053186 309.3194828 376.41114044 C309.33141856 383.65370423 309.33277707 390.89617721 309.32069264 398.1387423 C309.31481884 401.8303793 309.31366263 405.5218504 309.32569504 409.21347618 C309.33861619 413.22458081 309.32805361 417.2352935 309.31538391 421.24639893 C309.3227582 422.400509 309.33013248 423.55461907 309.33773023 424.74370217 C309.16042034 451.5217619 292.89302076 467.65692369 275.13647461 485.43115234 C273.60613113 486.96793797 272.07593156 488.50486691 270.54586792 490.04193115 C267.3538513 493.24585391 264.15779911 496.44568733 260.95922852 499.64306641 C256.88202089 503.72007041 252.81877764 507.81069202 248.75889778 511.90494156 C245.60858705 515.07758685 242.44912881 518.24100174 239.28710556 521.40196991 C237.78573169 522.90568691 236.28755983 524.41260864 234.79281998 525.92292023 C217.04482906 543.83853897 197.19374533 556.24319325 171.03458703 556.44291914 C169.9825255 556.44366577 169.9825255 556.44366577 168.90921021 556.44442749 C168.14172262 556.44880974 167.37423504 556.453192 166.58349025 556.45770705 C164.03360343 556.47097096 161.48375104 556.47724552 158.93383789 556.48339844 C157.09668832 556.49130884 155.25954027 556.49957836 153.4223938 556.50817871 C147.41043558 556.53427729 141.3984708 556.54968819 135.38647461 556.56396484 C133.3114204 556.56932841 131.23636624 556.57470592 129.1613121 556.5800972 C120.52946893 556.60170272 111.89762755 556.62043952 103.26576424 556.63171959 C90.9186282 556.64796536 78.5718064 556.68118529 66.22478878 556.73812044 C57.5281525 556.77685038 48.83160019 556.79635556 40.13487995 556.80164015 C34.94670138 556.80528765 29.75885893 556.81724646 24.57077408 556.84974289 C19.69014868 556.87987944 14.81006192 556.88611541 9.92936325 556.87435913 C8.14359781 556.87413891 6.35780691 556.88240145 4.5721283 556.90001297 C-5.74953682 556.99623146 -15.10883925 557.00433729 -23.00897026 549.41780663 C-27.51392498 544.52193879 -28.18562732 540.83062282 -28.23583984 534.17626953 C-28.24241104 533.45555771 -28.24898224 532.73484589 -28.25575256 531.99229431 C-28.27546105 529.60732922 -28.28714342 527.22242707 -28.29711914 524.83740234 C-28.30119467 524.02144844 -28.3052702 523.20549454 -28.30946922 522.36481476 C-28.33032076 518.04497024 -28.34462573 513.72515738 -28.35400391 509.40527344 C-28.36505905 504.9520789 -28.39945091 500.49938532 -28.43917561 496.04636765 C-28.46537123 492.6147369 -28.4736984 489.18322492 -28.47728539 485.75150299 C-28.48214471 484.11051302 -28.49374009 482.46952811 -28.51232338 480.82863617 C-28.53677595 478.52614619 -28.53573923 476.22494442 -28.52880859 473.92236328 C-28.53467484 472.61458923 -28.54054108 471.30681519 -28.54658508 469.95941162 C-27.83574182 464.61237589 -25.90261422 460.75273227 -21.58618164 457.32958984 C-20.7315332 456.86294922 -19.87688477 456.39630859 -18.99633789 455.91552734 C-18.13911133 455.43341797 -17.28188477 454.95130859 -16.39868164 454.45458984 C-11.85907334 452.19615366 -7.87622382 452.13845942 -2.91548157 452.13230896 C-2.07579006 452.12737098 -1.23609855 452.12243301 -0.37096184 452.11734539 C2.45272262 452.10194371 5.2763843 452.09360254 8.10009766 452.08520508 C10.12022096 452.07562865 12.14034225 452.06561871 14.16046143 452.0552063 C19.65389737 452.02812564 25.14734194 452.00713319 30.64080787 451.98720431 C36.37837791 451.96536425 42.1159213 451.93796589 47.85346985 451.91114807 C58.72251573 451.86119438 69.59157639 451.81626548 80.46065122 451.77312571 C92.83293348 451.72377619 105.20518899 451.66884959 117.57744539 451.61344612 C143.03199268 451.49958498 168.48656563 451.39275494 193.94116211 451.29052734 C193.97231976 447.78403715 193.99100093 444.27758318 194.00756836 440.77099609 C194.01647095 439.78611206 194.02537354 438.80122803 194.0345459 437.78649902 C194.13856369 408.38617757 179.35466681 381.84518277 159.31616211 361.16552734 C129.8844885 332.01894136 87.69298067 320.0904107 47.18432617 320.20996094 C24.8768043 320.7641225 3.26521813 325.08768394 -17.05883789 334.29052734 C-17.70949219 334.5829834 -18.36014648 334.87543945 -19.03051758 335.17675781 C-34.32526899 342.15882292 -47.11342374 351.51148387 -59.05883789 363.29052734 C-59.92250977 364.14130859 -60.78618164 364.99208984 -61.67602539 365.86865234 C-81.1598082 386.14149801 -91.92680183 413.66640607 -92.37524414 441.59521484 C-92.40641579 443.21388962 -92.40641579 443.21388962 -92.43821716 444.86526489 C-92.50338902 448.29862345 -92.56244679 451.73205587 -92.62133789 455.16552734 C-92.6645539 457.49886819 -92.70816916 459.83220168 -92.75219727 462.16552734 C-92.85903712 467.87378352 -92.96086257 473.58211251 -93.05883789 479.29052734 C-101.23067982 479.33708122 -109.40246537 479.37251276 -117.57440758 479.39415169 C-121.36988418 479.40454272 -125.16526935 479.41861523 -128.96069336 479.44140625 C-132.63061026 479.4633031 -136.30043979 479.47513107 -139.97041702 479.48028183 C-141.3632914 479.48394761 -142.75616157 479.49110502 -144.14899826 479.50198746 C-163.05773771 479.64370878 -178.17969312 475.32557344 -192.31274414 462.19677734 C-204.16573685 449.78149845 -207.53646288 434.17167984 -207.44651794 417.4702301 C-207.45190348 416.24801835 -207.45728902 415.02580659 -207.46283776 413.76655811 C-207.47457191 410.41371261 -207.4730927 407.06137117 -207.46567094 403.708547 C-207.46090621 400.07723085 -207.47347802 396.445966 -207.48368835 392.81466675 C-207.5008169 385.71634528 -207.50172885 378.61811257 -207.49647545 371.51977582 C-207.49242172 365.74645559 -207.49389153 359.97316145 -207.49922371 354.19984245 C-207.49997213 353.37581293 -207.50072055 352.55178341 -207.50149165 351.7027833 C-207.50302325 350.02838047 -207.50456159 348.35397765 -207.50610662 346.67957484 C-207.51980992 331.00503377 -207.51440906 315.33054272 -207.50292141 299.65600281 C-207.49298927 285.33964811 -207.50593322 271.02342266 -207.5298556 256.70708788 C-207.55428074 241.97801366 -207.56384622 227.24899956 -207.55720288 212.51990551 C-207.5537185 204.26222564 -207.55589102 196.00464514 -207.5734539 187.74698067 C-207.5882186 180.71829876 -207.58875575 173.68978622 -207.57138299 166.66110749 C-207.56290592 163.08053055 -207.56064189 159.50025561 -207.57603455 155.9196949 C-207.65085276 137.132028 -207.57633029 121.97223897 -196.05883789 106.29052734 C-195.31633789 105.23865234 -194.57383789 104.18677734 -193.80883789 103.10302734 C-185.00904774 94.10324196 -173.21313135 86.35902057 -160.30677795 86.05001831 C-158.47421618 86.04426865 -156.64159898 86.04942818 -154.80908203 86.06347656 C-153.80344208 86.06318451 -152.79780212 86.06289246 -151.76168823 86.06259155 C-148.45570077 86.06397884 -145.14994197 86.07951185 -141.84399414 86.09521484 C-139.54471459 86.09894711 -137.24543345 86.10179307 -134.94615173 86.10379028 C-128.90782241 86.11140992 -122.86958999 86.13104414 -116.83129883 86.15319824 C-110.66431997 86.17369261 -104.49732539 86.18279968 -98.33032227 86.19287109 C-86.23978501 86.21429155 -74.14931952 86.24840738 -62.05883789 86.29052734 C-62.07978516 85.17718018 -62.10073242 84.06383301 -62.12231445 82.91674805 C-62.19555622 78.72531359 -62.24093863 74.53393377 -62.27856445 70.34204102 C-62.29849057 68.53920939 -62.32564173 66.73644077 -62.3605957 64.93383789 C-62.71263126 46.29148461 -59.62386599 30.96508197 -46.24633789 16.91552734 C-33.17251795 4.57352486 -17.61084388 -0.01460854 0 0 Z " fill="#008BE5" transform="translate(424.058837890625,297.70947265625)"/>
<path d="M0 0 C14.1568882 11.37914965 25.44225813 27.62967636 28 46 C29.78858093 67.41307517 26.50151723 87.11578604 13 104.4375 C11.68415345 105.97348817 10.35211489 107.49584006 9 109 C8.48179687 109.61101562 7.96359375 110.22203125 7.4296875 110.8515625 C-3.40714424 122.77752306 -20.67332914 130.87924984 -36.63305664 132.22143555 C-57.47978345 133.08950932 -76.47727623 129.64221426 -92.5 115.4375 C-94.01065814 113.96922005 -95.51174374 112.490982 -97 111 C-97.62132812 110.44957031 -98.24265625 109.89914062 -98.8828125 109.33203125 C-110.35774117 98.9119727 -117.92928544 81.93525167 -119.20507812 66.52246094 C-119.99356051 45.61158622 -115.76144383 27.24893513 -102 11 C-101.29875 10.030625 -100.5975 9.06125 -99.875 8.0625 C-74.84241734 -21.18191403 -29.49017996 -21.68519671 0 0 Z " fill="#F8F7F5" transform="translate(520,455)"/>
<path d="M0 0 C1.22176941 -0.01283524 2.44353882 -0.02567047 3.70233154 -0.03889465 C5.04276118 -0.04706329 6.3831954 -0.05450679 7.72363281 -0.0612793 C8.39832863 -0.06535482 9.07302444 -0.06943035 9.76816559 -0.07362938 C13.34120884 -0.09449245 16.91421369 -0.1087915 20.48730469 -0.11816406 C24.1705452 -0.12921237 27.85317887 -0.1635922 31.53620529 -0.20333576 C34.37417693 -0.22953961 37.21200502 -0.23785931 40.05008698 -0.24144554 C42.06527826 -0.24865989 44.08037128 -0.27508576 46.09539795 -0.30183411 C57.54637203 -0.27469445 57.54637203 -0.27469445 62.17675781 4.17700195 C63.51207061 6.84762756 63.32601539 8.91784497 63.35375977 11.90844727 C63.37301262 13.71107025 63.37301262 13.71107025 63.39265442 15.55010986 C63.40004135 16.8552655 63.40742828 18.16042114 63.41503906 19.50512695 C63.41911459 20.16879021 63.42319012 20.83245346 63.42738914 21.51622772 C63.44825178 25.03091623 63.46255096 28.5455657 63.47192383 32.06030273 C63.48297146 35.68301371 63.51735056 39.30510758 63.55709553 42.92760086 C63.58330224 45.71924952 63.59161933 48.51075228 63.59520531 51.30251312 C63.60241838 53.28446715 63.62884312 55.26632129 63.65559387 57.24810791 C63.62811352 68.65477257 63.62811352 68.65477257 59.17675781 73.17700195 C55.84334787 75.29608244 53.12848017 75.43931833 49.21826172 75.4675293 C48.01666412 75.480289 46.81506653 75.49304871 45.57705688 75.50619507 C44.28222382 75.50842072 42.98739075 75.51064636 41.65332031 75.51293945 C40.30577453 75.51937036 38.95823014 75.52609894 37.61068726 75.53311157 C34.7879513 75.5450746 31.96533763 75.54879344 29.14257812 75.54760742 C25.53557175 75.54740433 21.92935415 75.57469923 18.32253456 75.60915184 C15.53944335 75.63145269 12.75654099 75.635444 9.9733696 75.63438797 C8.00030429 75.63787845 6.02729793 75.65952212 4.05435181 75.68148804 C-7.15415815 75.62438997 -7.15415815 75.62438997 -11.82324219 71.17700195 C-13.18156641 68.4603535 -12.98054495 66.28746436 -13.01611328 63.24609375 C-13.03217621 62.0010759 -13.04823914 60.75605804 -13.06478882 59.47331238 C-13.07627583 58.10762209 -13.08688444 56.74192417 -13.09667969 55.3762207 C-13.10200336 54.68924417 -13.10732704 54.00226765 -13.11281204 53.29447365 C-13.13953725 49.6577529 -13.15891341 46.02106639 -13.17333984 42.38427734 C-13.18667747 39.37615537 -13.21452546 36.36871206 -13.25537109 33.36083984 C-13.30471064 29.72745418 -13.32946219 26.09468392 -13.33656693 22.46097755 C-13.34327611 21.07787167 -13.35848998 19.69477933 -13.38245773 18.31186485 C-13.41413305 16.37351638 -13.41114259 14.43469601 -13.40673828 12.49609375 C-13.41482513 11.39404099 -13.42291199 10.29198822 -13.4312439 9.15653992 C-12.62620284 5.21140233 -10.86250207 3.72198483 -7.82324219 1.17700195 C-5.13038704 -0.16942562 -3.01519863 0.02751196 0 0 Z " fill="#018CE5" transform="translate(666.8232421875,173.822998046875)"/>
<path d="M0 0 C1.0626709 -0.00525696 2.1253418 -0.01051392 3.22021484 -0.01593018 C6.71987772 -0.02909369 10.21908279 -0.02040469 13.71875 -0.01025391 C16.15820401 -0.01227568 18.59765743 -0.01518798 21.03710938 -0.01895142 C26.14458991 -0.02336984 31.25191282 -0.01695901 36.359375 -0.00292969 C42.89966377 0.01416166 49.43958317 0.00431793 55.9798584 -0.01364708 C61.01565321 -0.02449777 66.05136074 -0.02103261 71.0871582 -0.0132637 C73.49845422 -0.01126526 75.90975822 -0.01370843 78.32104492 -0.02070236 C81.69340956 -0.02833773 85.06517954 -0.01668263 88.4375 0 C89.42991699 -0.00607269 90.42233398 -0.01214539 91.44482422 -0.0184021 C97.14513328 0.03372579 101.26465229 0.46696728 106.21875 3.38818359 C111.21875 9.38818359 111.21875 9.38818359 111.21875 41.38818359 C67.32875 41.38818359 23.43875 41.38818359 -21.78125 41.38818359 C-21.78125 8.38818359 -21.78125 8.38818359 -17.78125 3.38818359 C-11.935203 -0.0102372 -6.65421908 -0.04071779 0 0 Z " fill="#F6F6F5" transform="translate(429.78125,342.61181640625)"/>
<path d="M0 0 C0.71636627 -0.00428513 1.43273254 -0.00857025 2.17080688 -0.01298523 C3.6854751 -0.01872394 5.20017088 -0.01923215 6.71484375 -0.01489258 C9.02392057 -0.01173943 11.3317072 -0.03517144 13.640625 -0.06054688 C15.11458172 -0.06282073 16.58854188 -0.06352296 18.0625 -0.0625 C19.09242569 -0.07631462 19.09242569 -0.07631462 20.14315796 -0.09040833 C24.49122143 -0.04878187 27.21511068 0.63005646 30.6640625 3.30078125 C33.12170136 6.98723954 32.98711749 9.84027991 33 14.109375 C33.0066568 14.87250504 33.0133136 15.63563507 33.02017212 16.42189026 C33.03029057 18.03489778 33.03498939 19.6479471 33.03466797 21.26098633 C33.03904094 23.72612591 33.07536469 26.18947412 33.11328125 28.65429688 C33.11914972 30.22265014 33.12311891 31.79101189 33.125 33.359375 C33.13937103 34.09490097 33.15374207 34.83042694 33.16854858 35.58824158 C33.13741406 39.08328285 32.94384963 40.94310006 30.76025391 43.73461914 C26.99865833 46.54508218 23.97594006 46.4761154 19.42578125 46.50390625 C18.70800003 46.50960632 17.99021881 46.5153064 17.25068665 46.5211792 C15.73004633 46.53063077 14.20938551 46.53716381 12.6887207 46.54101562 C10.37088861 46.5507005 8.05395125 46.58171205 5.73632812 46.61328125 C4.25781776 46.61981362 2.77930105 46.62506317 1.30078125 46.62890625 C0.61102707 46.64125305 -0.07872711 46.65359985 -0.78938293 46.6663208 C-5.15409013 46.64628734 -7.87599092 45.98630077 -11.3359375 43.30078125 C-13.72622071 39.71535644 -13.64218529 37.10739559 -13.63671875 32.96484375 C-13.64100388 32.24847748 -13.645289 31.53211121 -13.64970398 30.79403687 C-13.65544269 29.27936865 -13.6559509 27.76467287 -13.65161133 26.25 C-13.64845818 23.94092318 -13.67189019 21.63313655 -13.69726562 19.32421875 C-13.69953948 17.85026203 -13.70024171 16.37630187 -13.69921875 14.90234375 C-13.7084285 14.21572662 -13.71763824 13.5291095 -13.72712708 12.82168579 C-13.68550062 8.47362232 -13.00666229 5.74973307 -10.3359375 2.30078125 C-6.75051269 -0.08950196 -4.14255184 -0.00546654 0 0 Z " fill="#018BE5" transform="translate(601.3359375,253.69921875)"/>
<path d="M0 0 C0.33 0 0.66 0 1 0 C1.33 20.46 1.66 40.92 2 62 C6.06990967 64.03495484 7.75879883 64.25987979 12.17382812 64.29052734 C13.42192261 64.30328705 14.67001709 64.31604675 15.95593262 64.32919312 C17.31437017 64.3322502 18.6728098 64.33447826 20.03125 64.3359375 C21.42842749 64.34236667 22.82560364 64.34909512 24.22277832 64.35610962 C27.14806236 64.36807141 30.07322839 64.37179143 32.99853516 64.37060547 C36.74472967 64.37040199 40.49016803 64.39773787 44.23618317 64.43214989 C47.12041698 64.45439562 50.00446786 64.4584438 52.88877869 64.45738602 C54.26987827 64.4597442 55.65098273 64.46858012 57.03199768 64.48405075 C58.96328957 64.50366567 60.89480386 64.49536173 62.82617188 64.48583984 C63.92441284 64.48868988 65.02265381 64.49153992 66.1541748 64.49447632 C69.6849982 63.88097815 70.84671461 62.81670206 73 60 C73.80315654 56.85518209 73.80315654 56.85518209 74 54 C74.33 54 74.66 54 75 54 C75.3125 57.1875 75.3125 57.1875 75 61 C72.8272578 63.63016161 71.05326212 65.47336894 68 67 C66.09186918 67.11161739 64.17986504 67.15927037 62.26855469 67.17700195 C61.06680603 67.18983719 59.86505737 67.20267242 58.62689209 67.21589661 C57.32173645 67.22328354 56.01658081 67.23067047 54.671875 67.23828125 C54.00821175 67.24235678 53.34454849 67.2464323 52.66077423 67.25063133 C49.14608573 67.27149397 45.63143625 67.28579315 42.11669922 67.29516602 C38.49398824 67.30621365 34.87189438 67.34059275 31.24940109 67.38033772 C28.45775243 67.40654443 25.66624967 67.41486151 22.87448883 67.41844749 C20.8925348 67.42566057 18.91068066 67.45208531 16.92889404 67.47883606 C5.65937968 67.45168612 5.65937968 67.45168612 1 63 C-0.35144654 60.29710692 -0.11975165 58.19930194 -0.11352539 55.17333984 C-0.11341209 53.34166763 -0.11341209 53.34166763 -0.11329651 51.47299194 C-0.10818952 50.13564005 -0.10297352 48.79828857 -0.09765625 47.4609375 C-0.0957914 46.09616141 -0.09436781 44.73138466 -0.09336853 43.36660767 C-0.08954863 39.77284907 -0.07972283 36.17913083 -0.06866455 32.58538818 C-0.05843911 28.91891018 -0.05386848 25.25242565 -0.04882812 21.5859375 C-0.0381001 14.39060659 -0.02102999 7.19530895 0 0 Z " fill="#0582E1" transform="translate(654,182)"/>
<path d="M0 0 C0.66 0.33 1.32 0.66 2 1 C0.56974806 2.65213589 -0.86945545 4.29652589 -2.3125 5.9375 C-3.11300781 6.85402344 -3.91351562 7.77054688 -4.73828125 8.71484375 C-7 11 -7 11 -10 12 C-8.52278578 8.54798361 -6.56205999 6.35038064 -3.875 3.75 C-3.15054688 3.04359375 -2.42609375 2.3371875 -1.6796875 1.609375 C-1.12539063 1.07828125 -0.57109375 0.5471875 0 0 Z " fill="#047FE3" transform="translate(531,561)"/>
<path d="M0 0 C4.29951803 1.59241408 6.39671947 4.35540725 9 8 C8.67 8.99 8.34 9.98 8 11 C6.84852339 9.73427767 5.70400686 8.46222094 4.5625 7.1875 C3.92441406 6.47980469 3.28632812 5.77210938 2.62890625 5.04296875 C1 3 1 3 0 0 Z " fill="#0A83E2" transform="translate(584,658)"/>
</svg>
